<svg width="148" height="36" viewBox="0 0 148 36" fill="none" xmlns="http://www.w3.org/2000/svg">
<path d="M34.7822 23.3444C35.5574 20.9888 35.8313 18.4979 35.5866 16.0308C35.3419 13.5636 34.5838 11.1744 33.3608 9.0157L21.0899 8.70597V8.55301L32.9011 8.25475C31.4746 6.01645 29.5665 4.1225 27.3149 2.71011L17.8387 2.47366V2.32071L26.2605 2.10848C22.8091 0.263702 18.8443 -0.397033 14.9785 0.228327C11.1127 0.853688 7.56108 2.73035 4.87208 5.56846L15.473 5.83614V5.98973L4.23845 6.27206C1.49684 9.48313 -0.00599403 13.5635 1.79682e-05 17.7801C1.79682e-05 17.9712 1.79679e-05 18.1561 0.00960864 18.3434C0.00891345 18.356 0.00891345 18.3685 0.00960864 18.381L4.23973 18.4881V18.6411L0.0255931 18.7462C0.0262742 18.7587 0.0262742 18.7713 0.0255931 18.7838C0.179299 21.5584 0.986931 24.2577 2.38298 26.6629L9.43979 26.8408V26.9937L2.68541 27.1639C4.34216 29.8152 6.66787 31.9869 9.4302 33.4618C9.65015 33.581 9.87265 33.6938 10.0984 33.8022V19.0337H11.8093C11.8752 19.0336 11.9404 19.0464 12.0013 19.0715C12.0621 19.0966 12.1174 19.1334 12.164 19.1798C12.2105 19.2262 12.2475 19.2813 12.2726 19.342C12.2978 19.4027 12.3107 19.4677 12.3106 19.5333V34.6874C15.903 35.8477 19.7712 35.8477 23.3635 34.6874V19.5333C23.3634 19.4677 23.3763 19.4027 23.4015 19.342C23.4267 19.2813 23.4636 19.2262 23.5102 19.1798C23.5567 19.1334 23.612 19.0966 23.6729 19.0715C23.7337 19.0464 23.7989 19.0336 23.8648 19.0337H25.5751V33.8022C25.7976 33.6951 26.0195 33.5829 26.2362 33.4663C27.9807 32.5375 29.558 31.326 30.9037 29.8814L26.4703 29.7692V29.6163L31.2503 29.4958C32.7167 27.8311 33.8572 25.9072 34.6127 23.8237L28.2343 23.6625V23.5095L34.7822 23.3444ZM28.0489 18.5646H7.62524L7.25632 17.0949H10.0984V15.5195H10.6776C10.8849 15.5196 11.09 15.5603 11.2814 15.6395C11.4729 15.7186 11.6468 15.8345 11.7932 15.9806C11.9397 16.1268 12.0559 16.3002 12.1351 16.4911C12.2143 16.6819 12.2551 16.8865 12.255 17.093H16.7306V14.995H5.88869C5.67705 13.3157 4.67707 12.0041 4.67707 12.0041C7.62524 12.6854 17.8387 12.7383 17.8387 12.7383C17.8387 12.7383 28.0502 12.6854 30.9964 12.0041C30.9964 12.0041 29.9984 13.3157 29.7867 14.995H18.9422V17.0937H23.4179C23.4179 16.887 23.4587 16.6823 23.5381 16.4914C23.6175 16.3004 23.7338 16.1269 23.8805 15.9808C24.0271 15.8347 24.2012 15.7188 24.3928 15.6397C24.5844 15.5607 24.7898 15.5201 24.9971 15.5201H25.5751V17.0937H28.4184L28.0489 18.5646Z" fill="#431D93"/>
<path d="M0 35.1839L0.278769 35.0959L0.557537 35.0176L1.11507 34.8608C1.48655 34.7652 1.85803 34.6696 2.23015 34.5899C2.97311 34.4178 3.7167 34.2744 4.45966 34.1381C5.94621 33.8723 7.43213 33.6735 8.91868 33.5122C11.8819 33.205 14.8594 33.0544 17.8386 33.061C20.8167 33.0607 23.7928 33.2147 26.7548 33.5224C28.2413 33.6849 29.7272 33.8831 31.2138 34.1483C31.9567 34.284 32.7003 34.4268 33.4433 34.5976C33.8148 34.6798 34.1863 34.7722 34.5584 34.8671L35.1159 35.0214L35.3947 35.0991L35.6734 35.1864V35.4344L31.2144 35.4981L26.7554 35.5204L17.8386 35.558L8.9206 35.5166L4.46158 35.4949L0 35.4344V35.1839Z" fill="#424240"/>
<path d="M137.269 13.7111L136.824 13.2611H133.27L132.822 13.7111V29.9211C132.822 33.9738 135.932 35.7749 139.042 35.7749H147.555L147.999 35.3249V32.1721L147.555 31.7222H139.045C138.157 31.7222 137.269 31.2716 137.269 29.9211V13.7111Z" fill="#424240"/>
<path d="M121.624 13.0355C118.514 13.0355 116.292 14.3866 114.959 16.1877H114.513C113.624 14.8366 112.291 13.0355 108.738 13.0355C108.447 13.0355 106.655 13.0706 106.655 13.0706L106.207 13.5205V16.681L106.655 17.1309H108.195C111.025 17.4496 111.403 19.5527 111.403 22.0382V35.5493L111.848 35.9993H115.402L115.846 35.5493V22.9432C115.846 19.3411 117.623 17.0901 120.734 17.0901C124.288 17.0901 124.732 19.3418 124.732 22.0433V35.5544L125.18 36.0044H128.734L129.179 35.5544V22.0433C129.177 17.0882 127.844 13.0355 121.624 13.0355Z" fill="#424240"/>
<path d="M100.351 13.4858L99.9062 13.9364V35.549L100.351 35.9996H103.905L104.349 35.549V13.9364L103.905 13.4858H100.351Z" fill="#424240"/>
<path d="M84.5512 35.3314L84.227 35.6545H80.3326L80.0078 35.3314V19.8045L80.3326 19.4807H84.2264L84.5512 19.8045V35.3314Z" fill="#424240"/>
<path d="M87.2896 23.0389L86.9648 22.7157V19.4807L87.2896 19.157H89.0946C92.9891 19.157 95.2608 21.7451 95.2608 25.6264V35.3314L94.936 35.6545H91.0415L90.7174 35.3314V25.9508C90.7174 24.3333 90.0684 23.0395 88.1208 23.0395L87.2896 23.0389Z" fill="#424240"/>
<path d="M61.6255 29.1853C61.5469 28.6497 61.5076 28.1091 61.5078 27.5678C61.5078 23.0391 64.1043 19.1553 69.2967 19.1553C74.4891 19.1553 77.085 23.0372 77.085 27.5678V28.8616L76.7608 29.1847H66.7021L61.6255 29.1853ZM71.8945 31.126L72.2193 30.8022H76.1138L76.4386 31.126H71.8945ZM72.2187 25.6266C72.2187 25.3028 71.8939 23.0384 69.298 23.0384C66.7021 23.0384 66.3773 25.3028 66.3773 25.6266L66.7015 25.9503H71.8939L72.2187 25.6266Z" fill="#424240"/>
<path d="M76.4391 31.1265C76.1143 33.0671 74.4922 35.9784 69.624 35.9784C64.7558 35.9784 62.5064 33.0671 62.1816 31.1265L62.5064 30.8027H66.8708L67.1956 31.1265C67.5198 31.7734 68.6502 32.0971 69.6253 32.0971C70.599 32.0971 71.5728 31.7734 71.897 31.1265" fill="#424240"/>
<path d="M57.9404 16.8936H42.6881L42.3633 16.5698V13.3355L42.6881 13.0117H57.9404L58.2653 13.3355V16.5698" fill="#424240"/>
<path d="M47.5556 31.4501V31.7738H58.59L58.9142 32.097V35.332L58.59 35.6551H42.3632L42.0391 35.332V31.7738L42.3632 31.1263L46.1707 26.0533L51.3503 19.4042L51.6745 19.0804H56.1482L56.4724 19.4042L47.5556 31.4501Z" fill="#424240"/>
</svg>
